PathFileType	4	(X/Y/Z)	/Users/itak/Documents/Research/Walk-IL/dataset/trc/00133_00007.trc
DataRate	CameraRate	NumFrames	NumMarkers	Units	OrigDataRate	OrigDataStartFrame	OrigNumFrames
100.000000	100.000000	4	53	mm	100.000000	0	732
Frame#	Time	RPSI			LPSI			L3			STRN			T10			C7			CLAV			RBAK			LBAK			LSHO			LUPA			LAEL			LAOL			LWTS			LWPS			LFRA			LIFD			LHPS			LHTS			RSHO			RUPA			RAEL			RAOL			RWTS			RWPS			RFRA			RIFD			RHTS			RHPS			RBHD			LFHD			RFHD			LBHD			LHIP			RHIP			RASI			LASI			LKNE			LTHI			LANK			LTIP			LTOE			LMT1			LMT5			LHEE			RKNE			RTHI			RANK			RTIP			RTOE			RMT1			RMT5			RHEE			
		X1	Y1	Z1	X2	Y2	Z2	X3	Y3	Z3	X4	Y4	Z4	X5	Y5	Z5	X6	Y6	Z6	X7	Y7	Z7	X8	Y8	Z8	X9	Y9	Z9	X10	Y10	Z10	X11	Y11	Z11	X12	Y12	Z12	X13	Y13	Z13	X14	Y14	Z14	X15	Y15	Z15	X16	Y16	Z16	X17	Y17	Z17	X18	Y18	Z18	X19	Y19	Z19	X20	Y20	Z20	X21	Y21	Z21	X22	Y22	Z22	X23	Y23	Z23	X24	Y24	Z24	X25	Y25	Z25	X26	Y26	Z26	X27	Y27	Z27	X28	Y28	Z28	X29	Y29	Z29	X30	Y30	Z30	X31	Y31	Z31	X32	Y32	Z32	X33	Y33	Z33	X34	Y34	Z34	X35	Y35	Z35	X36	Y36	Z36	X37	Y37	Z37	X38	Y38	Z38	X39	Y39	Z39	X40	Y40	Z40	X41	Y41	Z41	X42	Y42	Z42	X43	Y43	Z43	X44	Y44	Z44	X45	Y45	Z45	X46	Y46	Z46	X47	Y47	Z47	X48	Y48	Z48	X49	Y49	Z49	X50	Y50	Z50	X51	Y51	Z51	X52	Y52	Z52	X53	Y53	Z53	

1	0	318.0343322753906	1133.032958984375	1139.91015625	301.0094909667969	1133.502807617188	1273.338745117188	315.519287109375	1164.8173828125	1209.922485351562	105.1946334838867	1363.66552734375	1186.859375	357.0843811035156	1313.497192382812	1220.57958984375	323.9094543457031	1604.82470703125	1235.948608398438	143.1640014648438	1497.648559570312	1198.628173828125	387.5064086914062	1421.365356445312	1153.524536132812	315.34326171875	1582.80224609375	1336.770751953125	220.7591400146484	1569.325439453125	1392.089111328125	230.9223937988281	1436.730224609375	1463.062622070312	211.6905975341797	1216.49462890625	1475.481323242188	285.0782470703125	1205.206298828125	1427.6279296875	116.6178359985352	960.5438842773438	1408.960327148438	191.931396484375	933.94580078125	1447.1015625	192.6063232421875	1100.113525390625	1473.402709960938	91.53519439697266	781.9024047851562	1360.06298828125	163.3462219238281	858.7210083007812	1440.687377929688	98.98105621337891	870.5686645507812	1413.735595703125	295.57568359375	1588.499389648438	1047.80712890625	324.4480895996094	1516.784790039062	986.7677612304688	346.0572204589844	1222.599243164062	967.0307006835938	336.2985534667969	1221.041748046875	1062.900268554688	201.3442077636719	980.4971923828125	951.4158325195312	280.8834533691406	963.0868530273438	935.5889282226562	326.1503295898438	1149.325073242188	947.0421752929688	171.38818359375	787.4874877929688	965.3578491210938	171.4436187744141	872.3910522460938	939.9645385742188	243.7987823486328	863.7243041992188	924.4743041992188	293.8572998046875	1787.30712890625	1164.506958007812	87.0850830078125	1831.940185546875	1228.511352539062	132.8037567138672	1836.097045898438	1106.798828125	253.784423828125	1787.628540039062	1293.957641601562	200.3079986572266	1040.796875	1365.687622070312	207.3556365966797	1035.4267578125	1005.173828125	120.0070343017578	1108.253540039062	1049.119140625	95.96391296386719	1103.914428710938	1315.271728515625	199.8650665283203	539.1303100585938	1321.872192382812	214.2124328613281	686.324462890625	1356.512329101562	325.5961303710938	42.65008926391602	1305.22900390625	304.8124694824219	294.6929016113281	1346.871459960938	96.33792114257812	40.43656539916992	1234.900390625	179.6539001464844	45.64593124389648	1204.376220703125	199.7333831787109	40.26066589355469	1322.547119140625	397.4481811523438	44.04182815551758	1247.614624023438	230.3090667724609	543.3118896484375	1042.571044921875	197.1713256835938	822.1893310546875	1011.393920898438	336.1141052246094	35.06449127197266	1067.551879882812	260.1663513183594	412.0717468261719	1034.219604492188	104.341178894043	47.78459930419922	1118.05908203125	164.9492340087891	36.56069946289062	1161.858642578125	202.1861419677734	44.12911605834961	1046.778564453125	393.7296752929688	36.29466247558594	1116.37109375	
2	0.01	317.9840087890625	1133.03173828125	1139.9775390625	300.9873962402344	1133.499267578125	1273.399780273438	315.4581298828125	1164.811889648438	1209.987426757812	105.0710983276367	1363.684448242188	1186.95068359375	356.9967956542969	1313.506591796875	1220.644897460938	323.8111572265625	1604.828735351562	1236.024536132812	143.0303192138672	1497.666748046875	1198.712890625	387.4391784667969	1421.387084960938	1153.5634765625	315.2508544921875	1582.808959960938	1336.845458984375	220.6504516601562	1569.320922851562	1392.18505859375	230.8988800048828	1436.762451171875	1463.081176757812	211.5705413818359	1216.559326171875	1475.52978515625	284.8970336914062	1205.18896484375	1427.72998046875	116.3625259399414	960.5809936523438	1408.952026367188	191.7529144287109	933.996826171875	1447.178466796875	192.4202575683594	1100.098266601562	1473.4443359375	91.15000152587891	781.8832397460938	1360.074584960938	163.0532836914062	858.7382202148438	1440.721557617188	98.69068908691406	870.6241455078125	1413.792846679688	295.4746398925781	1588.5361328125	1047.881225585938	324.3081665039062	1516.836303710938	986.8208618164062	345.9450988769531	1222.664672851562	967.0148315429688	336.1753845214844	1221.082153320312	1062.896240234375	201.2533721923828	980.5305786132812	951.445068359375	280.8025817871094	963.1469116210938	935.5560302734375	326.0174865722656	1149.391723632812	947.0266723632812	171.3437042236328	787.513427734375	965.3524780273438	171.3689575195312	872.4095458984375	939.9671630859375	243.7288360595703	863.7738037109375	924.4571533203125	293.9378356933594	1787.220703125	1164.58544921875	87.23125457763672	1832.1162109375	1228.737548828125	132.9020385742188	1836.222900390625	1106.997436523438	253.9241333007812	1787.550659179688	1294.042114257812	200.2528228759766	1040.796630859375	1365.748413085938	207.3061065673828	1035.427001953125	1005.194519042969	119.9578552246094	1108.253784179688	1049.196899414062	95.86249542236328	1103.92578125	1315.360595703125	199.7995452880859	539.1146850585938	1321.877197265625	214.0887451171875	686.2972412109375	1356.566772460938	325.5949096679688	42.65248870849609	1305.227661132812	304.8141174316406	294.6531066894531	1346.93212890625	96.332763671875	40.43932342529297	1234.89599609375	179.6646881103516	45.6380729675293	1204.362548828125	199.7246551513672	40.26837921142578	1322.534912109375	397.4558410644531	44.04640960693359	1247.613403320312	230.3058776855469	543.3145141601562	1042.596435546875	197.1449432373047	822.19140625	1011.424682617188	336.1131896972656	35.06130981445312	1067.55126953125	260.1575012207031	412.0693664550781	1034.2255859375	104.3229293823242	47.78432083129883	1118.0546875	164.94970703125	36.57053375244141	1161.853637695312	202.1879425048828	44.12570190429688	1046.778076171875	393.7318725585938	36.28135681152344	1116.37255859375	
3	0.02	317.9219055175781	1133.030151367188	1140.060302734375	300.9603271484375	1133.494018554688	1273.4765625	315.386962890625	1164.806030273438	1210.068359375	104.9166488647461	1363.707885742188	1187.065307617188	356.8925476074219	1313.517456054688	1220.724731445312	323.6918640136719	1604.83349609375	1236.1162109375	142.8650207519531	1497.688842773438	1198.820556640625	387.3533935546875	1421.413696289062	1153.611572265625	315.1403198242188	1582.817749023438	1336.936645507812	220.5181732177734	1569.31591796875	1392.301879882812	230.8424377441406	1436.796875	1463.126708984375	211.4163513183594	1216.635986328125	1475.58984375	284.6634521484375	1205.164672851562	1427.856323242188	116.0349197387695	960.6288452148438	1408.94970703125	191.4636383056641	933.9907836914062	1447.208618164062	192.1829223632812	1100.086181640625	1473.504150390625	90.66767120361328	781.87060546875	1360.098388671875	162.6769714355469	858.7658081054688	1440.764526367188	98.32906341552734	870.696044921875	1413.865966796875	295.3448791503906	1588.580078125	1047.972412109375	324.1339111328125	1516.897705078125	986.885498046875	345.8075866699219	1222.742553710938	966.9931640625	336.0200500488281	1221.130493164062	1062.8896484375	201.1406555175781	980.5706787109375	951.4781494140625	280.702392578125	963.2164916992188	935.5142211914062	325.8516845703125	1149.473022460938	947.0048828125	171.2839202880859	787.5460205078125	965.3403930664062	171.2749786376953	872.434326171875	939.965087890625	243.6402435302734	863.8305053710938	924.4360961914062	294.0341796875	1787.118774414062	1164.6845703125	87.41525268554688	1832.331176757812	1229.02001953125	133.0157165527344	1836.377807617188	1107.253540039062	254.0928955078125	1787.455444335938	1294.148803710938	200.1897888183594	1040.795654296875	1365.822631835938	207.2449035644531	1035.429321289062	1005.230651855469	119.8988265991211	1108.256225585938	1049.2900390625	95.74419403076172	1103.937744140625	1315.468017578125	199.7216339111328	539.0966796875	1321.88671875	213.942138671875	686.266357421875	1356.63525390625	325.59326171875	42.65565872192383	1305.225708007812	304.8193359375	294.6032104492188	1347.009399414062	96.32736206054688	40.44141006469727	1234.890869140625	179.6753692626953	45.63093185424805	1204.3466796875	199.7146759033203	40.27682113647461	1322.521728515625	397.4631652832031	44.04953384399414	1247.613403320312	230.2980651855469	543.3171997070312	1042.629150390625	197.0787506103516	822.2088012695312	1011.448425292969	336.1126708984375	35.05588912963867	1067.55078125	260.1436462402344	412.065673828125	1034.235961914062	104.3079376220703	47.78837203979492	1118.052612304688	164.9503784179688	36.58218383789062	1161.846313476562	202.1907348632812	44.12216949462891	1046.778076171875	393.7359619140625	36.26762390136719	1116.373291015625	
4	0.03	317.8510131835938	1133.027954101562	1140.154174804688	300.9296875	1133.4873046875	1273.56591796875	315.3117980957031	1164.800415039062	1210.16162109375	104.7394943237305	1363.734008789062	1187.197265625	356.778076171875	1313.528442382812	1220.814453125	323.5590209960938	1604.838989257812	1236.2177734375	142.6776123046875	1497.712768554688	1198.946655273438	387.2525634765625	1421.443481445312	1153.666381835938	315.0181579589844	1582.82861328125	1337.03955078125	220.3697357177734	1569.311157226562	1392.432861328125	230.7443084716797	1436.829345703125	1463.205932617188	211.23046875	1216.7177734375	1475.659545898438	284.3862609863281	1205.1337890625	1427.999389648438	115.6460723876953	960.6871337890625	1408.958129882812	191.0653381347656	933.9258422851562	1447.188598632812	191.9015960693359	1100.082153320312	1473.583740234375	90.11435699462891	781.8704223632812	1360.141235351562	162.2296752929688	858.8050537109375	1440.813842773438	97.90907287597656	870.78125	1413.94970703125	295.1898193359375	1588.628295898438	1048.07666015625	323.9340209960938	1516.96484375	986.9578247070312	345.6520690917969	1222.82763671875	966.9661254882812	335.8408203125	1221.182983398438	1062.879760742188	201.0110473632812	980.61474609375	951.5115966796875	280.5870361328125	963.2896728515625	935.4650268554688	325.6604309082031	1149.563354492188	946.9771118164062	171.2083740234375	787.58349609375	965.319580078125	171.1652679443359	872.4646606445312	939.956298828125	243.5363311767578	863.8900146484375	924.4115600585938	294.1396484375	1787.008666992188	1164.799926757812	87.62870025634766	1832.571411132812	1229.344360351562	133.1342468261719	1836.553100585938	1107.55712890625	254.2808837890625	1787.34814453125	1294.273559570312	200.1227569580078	1040.794189453125	1365.907348632812	207.1740264892578	1035.433959960938	1005.285827636719	119.8339691162109	1108.261108398438	1049.3916015625	95.61892700195312	1103.948486328125	1315.587036132812	199.6365814208984	539.0772094726562	1321.9013671875	213.7824249267578	686.23388671875	1356.715942382812	325.5913696289062	42.65928268432617	1305.2236328125	304.8281860351562	294.5470275878906	1347.098999023438	96.32267761230469	40.44231033325195	1234.885009765625	179.6847229003906	45.62516784667969	1204.329833984375	199.7046966552734	40.28488540649414	1322.5087890625	397.4694519042969	44.04975509643555	1247.61474609375	230.2841491699219	543.3193969726562	1042.668334960938	196.9783935546875	822.2372436523438	1011.467346191406	336.113037109375	35.04781341552734	1067.550537109375	260.1236877441406	412.0603332519531	1034.251831054688	104.2995529174805	47.79681015014648	1118.054077148438	164.9509124755859	36.59453201293945	1161.83740234375	202.1944732666016	44.11875152587891	1046.778564453125	393.7414855957031	36.25485610961914	1116.373779296875	
